<svg width="22" height="21" viewBox="0 0 22 21" fill="none" xmlns="http://www.w3.org/2000/svg">
<path d="M5.0625 20.5C4.66666 20.5 4.34375 20.3438 4.09375 20.0312C3.84375 19.7188 3.77083 19.375 3.875 19L4.75 15.5H1.96875C1.55208 15.5 1.21875 15.3387 0.968746 15.0162C0.718746 14.6929 0.64583 14.3333 0.749996 13.9375C0.812496 13.6458 0.95833 13.4167 1.1875 13.25C1.41666 13.0833 1.67708 13 1.96875 13H5.375L6.625 8H3.21875C2.80208 8 2.46875 7.83875 2.21875 7.51625C1.96875 7.19292 1.89583 6.83333 2 6.4375C2.0625 6.14583 2.20833 5.91667 2.4375 5.75C2.66666 5.58333 2.92708 5.5 3.21875 5.5H7.25L8.28125 1.40625C8.34375 1.13542 8.47916 0.916666 8.6875 0.75C8.89583 0.583333 9.14583 0.5 9.4375 0.5C9.83333 0.5 10.1562 0.65625 10.4062 0.96875C10.6562 1.28125 10.7292 1.625 10.625 2L9.75 5.5H14.75L15.7812 1.40625C15.8437 1.13542 15.9792 0.916666 16.1875 0.75C16.3958 0.583333 16.6458 0.5 16.9375 0.5C17.3333 0.5 17.6562 0.65625 17.9062 0.96875C18.1562 1.28125 18.2292 1.625 18.125 2L17.25 5.5H20.0312C20.4479 5.5 20.7812 5.66125 21.0312 5.98375C21.2812 6.30708 21.3542 6.66667 21.25 7.0625C21.1875 7.35417 21.0417 7.58333 20.8125 7.75C20.5833 7.91667 20.3229 8 20.0312 8H16.625L15.375 13H18.7812C19.1979 13 19.5312 13.1613 19.7812 13.4838C20.0312 13.8071 20.1042 14.1667 20 14.5625C19.9375 14.8542 19.7917 15.0833 19.5625 15.25C19.3333 15.4167 19.0729 15.5 18.7812 15.5H14.75L13.7187 19.5938C13.6562 19.8646 13.5208 20.0833 13.3125 20.25C13.1042 20.4167 12.8542 20.5 12.5625 20.5C12.1667 20.5 11.8437 20.3438 11.5937 20.0312C11.3437 19.7188 11.2708 19.375 11.375 19L12.25 15.5H7.25L6.21875 19.5938C6.15625 19.8646 6.02083 20.0833 5.8125 20.25C5.60416 20.4167 5.35416 20.5 5.0625 20.5ZM7.875 13H12.875L14.125 8H9.125L7.875 13Z" fill="black"/>
</svg>
